<svg xmlns="http://www.w3.org/2000/svg" viewBox="0 0 64 64" fill="none" stroke="currentColor" stroke-width="2.5" stroke-linecap="round" stroke-linejoin="round">
  <rect x="14" y="12" width="36" height="14" rx="4" stroke="#8b5cf6" fill="#8b5cf6" fill-opacity="0.12"/>
  <path d="M50 19h6a3 3 0 0 1 3 3v12a3 3 0 0 1-3 3H36v12a4 4 0 0 1-8 0V37" stroke="#8b5cf6"/>
  <path d="M28 49h8v7a2 2 0 0 1-2 2h-4a2 2 0 0 1-2-2v-7z" fill="#8b5cf6" stroke="#8b5cf6"/>
  <path d="M20 26v4" stroke="#8b5cf6"/>
  <path d="M28 26v6" stroke="#8b5cf6"/>
  <path d="M38 26v3" stroke="#8b5cf6"/>
</svg>
